<svg width="350" height="541" viewBox="0 0 350 541" fill="none" xmlns="http://www.w3.org/2000/svg">
<path d="M91.4275 88.6342L73.7523 132.355L58.8696 169.168M58.8696 169.168L56.0771 176.075L3.98193 130.606L37.4717 62.4019L58.8696 23.9279L106.312 13.435L115.615 43.1649L134.22 79.8901L197.479 88.6342L238.411 79.8901V43.1649V2.94214H270.04L299.809 13.435L307.251 43.1649L346.322 144.596L270.04 176.075L257.016 132.355L238.411 191.814L281.203 244.279L299.809 293.246L331.438 338.715V357.952L307.251 431.402L281.203 538.08H184.455V464.63L197.479 410.417V357.952V293.246L173.292 303.739L134.22 338.715L115.615 382.436L91.4275 420.91L106.312 464.63L115.615 506.602V538.08H37.4717V480.369L26.3084 382.436V267.014L58.8696 169.168Z" stroke="#F5D638" stroke-width="5"/>
</svg>
